# xmcd CD database file
#
# Track frame offsets:
#	150
#	18484
#	37535
#	55910
#	69340
#	85649
#	100277
#	115851
#	128988
#	141252
#	153427
#	165554
#	178626
#	190687
#	205317
#	215086
#
# Disc length: 2986 seconds
#
# Revision: 0
# Processed by: cddbd v1.5.1PL0 Copyright (c) Steve Scherf et al.
# Submitted via: CDex 1.50
#
DISCID=d60ba810
DTITLE=Herbie Mann - My Littler Suede Shoes
DYEAR=1954
DGENRE=Jazz
TTITLE0=Between The Devil And The Deep Blue Sea
TTITLE1=Things We Did Last Summer
TTITLE2=After Work
TTITLE3=Chicken Littler
TTITLE4=Deep Night
TTITLE5=Cuban Love Song
TTITLE6=Moon Dreams
TTITLE7=Scuffles
TTITLE8=Purple Grotto
TTITLE9=A Spring Morning
TTITLE10=My Little Suede Shoes
TTITLE11=Autumn Nocturne
TTITLE12=Why DoI Love You
TTITLE13=It Might As Well Be Spring
TTITLE14=Woodchuck
TTITLE15=Love Is A Simple Thing
EXTD=YEAR: 1954
EXTT0=
EXTT1=
EXTT2=
EXTT3=
EXTT4=
EXTT5=
EXTT6=
EXTT7=
EXTT8=
EXTT9=
EXTT10=
EXTT11=
EXTT12=
EXTT13=
EXTT14=
EXTT15=
PLAYORDER=
